<?xml version="1.0" standalone="no"?>
<!DOCTYPE svg PUBLIC "-//W3C//DTD SVG 20010904//EN"
 "http://www.w3.org/TR/2001/REC-SVG-20010904/DTD/svg10.dtd">
<svg version="1.0" xmlns="http://www.w3.org/2000/svg"
 width="512.000000pt" height="512.000000pt" viewBox="0 0 512.000000 512.000000"
 preserveAspectRatio="xMidYMid meet">
<metadata>
Created by potrace 1.15, written by Peter Selinger 2001-2017
</metadata>
<g transform="translate(0.000000,512.000000) scale(0.100000,-0.100000)"
fill="#000000" stroke="none">
<path d="M2560 4483 c-39 -12 -60 -28 -70 -52 -7 -18 -8 -106 -3 -288 l8 -263
28 -27 c38 -38 96 -38 134 0 l27 27 -2 192 c-3 224 -11 345 -24 371 -8 15 -68
50 -80 46 -2 0 -10 -3 -18 -6z"/>
<path d="M3748 4220 c-9 -6 -95 -93 -192 -195 -175 -184 -176 -185 -176 -230
0 -62 32 -95 92 -95 42 0 45 2 191 152 197 203 227 241 227 285 0 67 -84 116
-142 83z"/>
<path d="M1280 4193 c-40 -15 -60 -46 -60 -93 l0 -47 178 -170 c97 -93 188
-177 202 -186 69 -48 164 18 145 102 -5 22 -56 77 -190 206 -198 188 -224 206
-275 188z"/>
<path d="M1047 3276 c-87 -31 -122 -76 -352 -451 -135 -220 -285 -487 -331
-592 l-39 -88 -3 -609 c-3 -682 -4 -667 67 -748 22 -24 63 -57 92 -73 l54 -30
2015 0 2015 0 47 22 c66 30 132 102 157 169 20 53 21 73 21 644 0 675 9 602
-102 818 -79 154 -180 327 -350 600 -76 123 -141 228 -144 235 -6 17 -109 90
-147 104 -50 18 -2948 17 -3000 -1z m2917 -166 c40 -15 72 -68 324 -523 l232
-422 -692 -5 c-498 -4 -699 -8 -713 -17 -46 -26 -58 -51 -71 -153 -31 -240
-190 -412 -416 -450 -283 -48 -567 183 -568 462 0 57 -4 71 -26 98 -53 63 -18
60 -760 60 -537 0 -675 3 -671 13 3 6 104 194 225 417 129 238 236 424 260
451 76 86 -63 79 1479 79 869 0 1381 -4 1397 -10z"/>
</g>
</svg>
